<svg width="40" height="41" viewBox="0 0 40 41" fill="none" xmlns="http://www.w3.org/2000/svg">
<path d="M20 23.3209C21.7259 23.3209 23.125 21.9218 23.125 20.1959C23.125 18.47 21.7259 17.0709 20 17.0709C18.2741 17.0709 16.875 18.47 16.875 20.1959C16.875 21.9218 18.2741 23.3209 20 23.3209Z" fill="#00D8FF"/>
<path d="M20 27.3609C16.2439 27.4517 12.4972 26.9454 8.9 25.8609C7.23828 25.3341 5.68842 24.5043 4.32875 23.4134C3.80991 23.0407 3.37784 22.5602 3.06218 22.0048C2.74652 21.4494 2.55474 20.8323 2.5 20.1959C2.5 18.1296 4.77 16.1046 8.5725 14.7796C12.2659 13.6055 16.1249 13.0365 20 13.0946C23.8234 13.0412 27.6307 13.5999 31.2775 14.7496C32.8779 15.2598 34.3752 16.0495 35.7 17.0821C36.21 17.4374 36.6356 17.9005 36.9466 18.4386C37.2577 18.9767 37.4466 19.5766 37.5 20.1959C37.5 22.3434 34.9625 24.5196 30.875 25.8721C27.3474 26.9213 23.6798 27.4234 20 27.3609ZM20 14.5896C16.2926 14.5401 12.601 15.081 9.06375 16.1921C5.56375 17.4134 3.995 19.0834 3.995 20.1921C3.995 21.3521 5.68125 23.1759 9.38375 24.4421C12.8251 25.4744 16.4083 25.955 20 25.8659C23.5205 25.9288 27.0299 25.4525 30.4062 24.4534C34.25 23.1796 36 21.3534 36 20.1959C35.9369 19.7986 35.7922 19.4188 35.5749 19.0804C35.3576 18.742 35.0724 18.4523 34.7375 18.2296C33.5522 17.3135 32.2146 16.6137 30.7862 16.1621C27.2975 15.0668 23.6562 14.5359 20 14.5896Z" fill="#00D8FF"/>
<path d="M12.9 35.7822C12.3169 35.7956 11.7406 35.6541 11.23 35.3722C9.44 34.3397 8.82 31.3622 9.57125 27.4059C10.3996 23.6198 11.8348 19.9925 13.8213 16.6647C15.6847 13.3261 18.0702 10.3071 20.8875 7.72217C22.129 6.59055 23.5611 5.68785 25.1175 5.05592C25.6805 4.79209 26.2945 4.65533 26.9163 4.65533C27.538 4.65533 28.1521 4.79209 28.715 5.05592C30.5763 6.12842 31.1925 9.41342 30.3238 13.6297C29.4699 17.2104 28.072 20.639 26.1788 23.7959C24.3809 27.0951 22.0705 30.0878 19.3338 32.6622C18.0472 33.8382 16.5542 34.7659 14.93 35.3984C14.2798 35.6398 13.5935 35.7695 12.9 35.7822ZM15.1163 17.4072C13.2214 20.5938 11.8458 24.0618 11.0413 27.6809C10.35 31.3247 11.0138 33.5159 11.9788 34.0734C12.9788 34.6522 15.4062 34.1034 18.3538 31.5284C20.9663 29.0621 23.1715 26.1974 24.8875 23.0409C26.7012 20.0228 28.0421 16.7448 28.8638 13.3209C29.6812 9.35217 28.975 6.92217 27.9725 6.34467C27.5968 6.2007 27.1952 6.13626 26.7933 6.15541C26.3914 6.17456 25.9978 6.27688 25.6375 6.45592C24.2521 7.0276 22.9784 7.83921 21.875 8.85342C19.1833 11.3294 16.9046 14.2196 15.125 17.4147L15.1163 17.4072Z" fill="#00D8FF"/>
<path d="M27.0962 35.7984C25.4025 35.7984 23.2512 34.7734 21.0112 32.8471C18.1446 30.2387 15.7187 27.1839 13.8275 23.8009C11.8659 20.5188 10.4421 16.944 9.61 13.2121C9.24914 11.5702 9.18227 9.87736 9.4125 8.21212C9.46573 7.59438 9.65383 6.99583 9.96354 6.4587C10.2733 5.92156 10.697 5.45891 11.205 5.10337C13.0638 4.02712 16.2175 5.13337 19.4362 7.99087C22.112 10.5186 24.3842 13.4417 26.1737 16.6584C28.1341 19.8638 29.5729 23.3603 30.4362 27.0171C30.8126 28.7192 30.8707 30.4764 30.6075 32.1996C30.5449 32.8351 30.3456 33.4496 30.0232 34.0008C29.7009 34.5521 29.2631 35.0271 28.74 35.3934C28.2377 35.6718 27.6704 35.8115 27.0962 35.7984ZM15.1213 23.0484C16.9355 26.2814 19.2529 29.2051 21.9862 31.7096C24.7975 34.1284 27.0275 34.6484 27.9862 34.0846C28.9862 33.5034 29.7237 31.1309 28.9637 27.2921C28.1311 23.8008 26.7511 20.4633 24.875 17.4034C23.1673 14.3248 20.9984 11.5257 18.4438 9.10337C15.4138 6.41337 12.9563 5.81212 11.955 6.39212C11.6429 6.64572 11.3868 6.96127 11.2029 7.31885C11.0189 7.67643 10.9111 8.06827 10.8863 8.46962C10.6875 9.95473 10.7522 11.4632 11.0775 12.9259C11.8779 16.4948 13.2434 19.9129 15.1225 23.0509L15.1213 23.0484Z" fill="#00D8FF"/>
</svg>
