<svg width="28" height="19" viewBox="0 0 28 19" fill="none" xmlns="http://www.w3.org/2000/svg">
<path fill-rule="evenodd" clip-rule="evenodd" d="M15.8063 13.9271V17.7621C16.503 18.1061 17.2456 18.3481 18.0113 18.4809C18.896 18.6442 19.7941 18.7246 20.6938 18.7209C21.5706 18.7251 22.4455 18.6367 23.3038 18.4571C24.0744 18.3014 24.8096 18.0048 25.4725 17.5821C26.0879 17.1849 26.5951 16.6411 26.9488 15.9996C27.582 14.6713 27.6656 13.1467 27.1812 11.7571C26.9769 11.2375 26.6723 10.7631 26.285 10.3609C25.8692 9.93322 25.3969 9.56439 24.8813 9.26464C24.2876 8.91692 23.6707 8.61037 23.035 8.34714C22.535 8.13964 22.085 7.93798 21.685 7.74215C21.3297 7.57204 20.9897 7.37172 20.6688 7.1434C20.4174 6.96716 20.199 6.74797 20.0238 6.49589C19.8723 6.26702 19.7935 5.99779 19.7975 5.72339C19.7942 5.47085 19.8645 5.22281 20 5.00964C20.1471 4.78655 20.3434 4.60012 20.5738 4.46464C20.8553 4.29886 21.1617 4.17942 21.4813 4.11089C21.8735 4.02375 22.2745 3.98181 22.6763 3.98589C23.0142 3.98706 23.3516 4.01128 23.6863 4.05839C24.0476 4.10725 24.4051 4.18118 24.7563 4.27964C25.1134 4.37863 25.4627 4.50397 25.8013 4.65464C26.1298 4.8011 26.4441 4.97769 26.74 5.18215V1.60339C26.1239 1.3703 25.485 1.20271 24.8337 1.10339C24.0474 0.98897 23.2534 0.935063 22.4587 0.942145C21.5901 0.937468 20.7241 1.03608 19.8788 1.23589C19.1147 1.41049 18.3882 1.72083 17.7338 2.15214C17.1258 2.5571 16.6239 3.10192 16.27 3.74089C15.895 4.45048 15.7094 5.24484 15.7313 6.04714C15.7036 7.10813 16.053 8.14455 16.7175 8.97214C17.5327 9.88975 18.5607 10.5932 19.7113 11.0209C20.2362 11.2376 20.7258 11.4496 21.18 11.6571C21.5898 11.8395 21.9836 12.0556 22.3575 12.3034C22.6591 12.4996 22.9239 12.7471 23.14 13.0346C23.33 13.2955 23.4308 13.6107 23.4275 13.9334C23.4292 14.1752 23.3671 14.4132 23.2475 14.6234C23.1146 14.8492 22.9278 15.0386 22.7038 15.1746C22.4235 15.3455 22.1168 15.4689 21.7963 15.5396C21.3787 15.633 20.9516 15.6771 20.5238 15.6709C19.6841 15.6694 18.8512 15.5213 18.0625 15.2334C17.2385 14.9361 16.4744 14.4937 15.8063 13.9271ZM9.36375 4.37964H14.3638V1.22089H0.422501V4.37964H5.4V18.4471H9.36375V4.37964Z" fill="white"/>
</svg>
